#!OML:ASF I:\Actors\actors\Patient Classification 2\Patient 1\Session 1\actor1.ASF
:FULLY-SPECIFIED
:DEGREES
425
root -0.657439 18.8778 6.31083 9.72982 -9.00097 1.07416
lowerback 23.8258 -3.31847 7.88854
upperback -2.19905 -1.63806 2.84986
thorax -16.2488 -1.24251 -0.564991
lowerneck -20.6331 3.79533 3.67812
upperneck 5.5742 4.98416 -7.91464
head 5.28592 1.9256 -2.5914
rclavicle 6.36111e-015 -3.49861e-014
rhumerus -29.2417 -16.851 8.97054
rradius 51.9677
rwrist 0.661922
rhand 14.8812 -41.4985
rfingers 7.12502
rthumb 39.7398 -66.8025
lclavicle 6.36111e-015 -3.49861e-014
lhumerus -23.1896 41.9563 1.41558
lradius 49.5111
lwrist -7.79395
lhand 27.6344 -5.62185
lfingers 7.12502
lthumb 51.5681 14.7369
rfemur -1.90799 7.9898 11.0407
rtibia -4.77083e-015
rfoot -17.3157 -12.9451
rtoes -4.30943
lfemur -10.8507 4.20301 -15.8331
ltibia 19.9706
lfoot -18.0556 8.85947
ltoes -55.579
426
root -0.673835 18.8792 6.30816 9.6563 -8.81752 1.125
lowerback 24.0244 -3.2326 7.67607
upperback -2.16524 -1.60852 2.58628
thorax -16.3201 -1.22815 -0.759144
lowerneck -20.5406 3.7327 3.55021
upperneck 5.55667 4.88825 -7.51142
head 5.24334 1.90896 -2.45339
rclavicle -4.41302e-014 4.45278e-014
rhumerus -31.2898 -16.5875 9.97747
rradius 54.5369
rwrist -2.07561
rhand 15.2423 -41.5713
rfingers 7.12502
rthumb 40.0797 -66.7732
lclavicle -4.41302e-014 4.45278e-014
lhumerus -25.9361 40.0691 -0.347012
lradius 52.5772
lwrist -4.12502
lhand 30.2624 -4.28573
lfingers 7.12502
lthumb 53.9428 14.5909
rfemur -1.78383 7.81681 11.0803
rtibia 1.59028e-015
rfoot -17.2875 -12.8886
rtoes -4.82569
lfemur -10.8701 4.1616 -15.8007
ltibia 20.05
lfoot -17.9063 8.80051
ltoes -55.648
427
root -0.692465 18.8806 6.30554 9.62854 -8.61257 1.10677
lowerback 24.2478 -3.13484 7.46134
upperback -2.11548 -1.56 2.34578
thorax -16.384 -1.20337 -0.932519
lowerneck -20.2801 3.64061 3.44542
upperneck 5.3086 4.73396 -7.08054
head 5.09921 1.87361 -2.31868
rclavicle -4.65156e-014 -2.8625e-014
rhumerus -34.0514 -16.712 10.5899
rradius 57.3664
rwrist -3.48378
rhand 11.5335 -39.3749
rfingers 7.12502
rthumb 36.5794 -65.5469
lclavicle -4.65156e-014 -2.8625e-014
lhumerus -29.2882 36.2077 -1.94976
lradius 56.5715
lwrist 1.42164
lhand 31.021 -2.67943
lfingers 7.12502
lthumb 54.6225 15.7288
rfemur -1.69023 7.6296 11.1984
rtibia -9.54166e-015
rfoot -17.3256 -12.7606
rtoes -4.65633
lfemur -10.9148 4.04099 -15.6786
ltibia 20.1216
lfoot -17.7686 8.76335
ltoes -55.7765
428
root -0.714404 18.8828 6.3009 9.61159 -8.37251 1.10757
lowerback 24.5343 -3.01579 7.12904
upperback -2.06252 -1.50844 2.14027
thorax -16.4751 -1.16471 -0.997802
lowerneck -19.9439 3.48714 3.17514
upperneck 4.96613 4.52193 -6.50543
head 4.90424 1.81827 -2.11908
rclavicle 2.78299e-015 -1.82882e-014
rhumerus -37.3009 -17.1904 10.8748
rradius 60.1277
rwrist -3.17989
rhand 8.47054 -36.7282
rfingers 7.12502
rthumb 33.6743 -63.5837
lclavicle 2.78299e-015 -1.82882e-014
lhumerus -33.1576 30.7172 -2.99526
lradius 61.6423
lwrist 8.2188
lhand 29.4736 -0.706346
lfingers 7.12502
lthumb 53.233 18.6373
rfemur -1.60054 7.40314 11.3072
rtibia -1.11319e-014
rfoot -17.4148 -12.5745
rtoes -4.10236
lfemur -10.9744 3.90548 -15.5554
ltibia 20.199
lfoot -17.6455 8.65921
ltoes -55.8463
429
root -0.739049 18.8848 6.29291 9.66691 -8.12432 1.14961
lowerback 24.8152 -2.84291 6.67723
upperback -2.39826 -1.40992 1.95852
thorax -16.2752 -1.10441 -1.00977
lowerneck -19.4707 3.23175 2.65632
upperneck 4.53563 4.21273 -5.71066
head 4.64791 1.72699 -1.82226
rclavicle -1.94809e-014 3.26007e-014
rhumerus -40.9439 -17.6326 10.4878
rradius 62.8559
rwrist -2.31259
rhand 2.26921 -34.5888
rfingers 7.12502
rthumb 27.762 -62.5588
lclavicle -1.94809e-014 3.26007e-014
lhumerus -36.8644 28.0929 -3.31916
lradius 65.4024
lwrist 12.3122
lhand 27.1047 -0.833661
lfingers 7.12502
lthumb 51.0861 19.7995
rfemur -1.60042 7.15013 11.3672
rtibia 1.11319e-014
rfoot -17.4767 -12.393
rtoes -3.60783
lfemur -11.1496 3.93682 -15.4734
ltibia 20.281
lfoot -17.4881 8.40093
ltoes -55.8521
430
root -0.762302 18.8858 6.28111 9.86186 -7.8711 1.12489
lowerback 24.9951 -2.64376 6.30175
upperback -2.40051 -1.27545 1.77157
thorax -16.3601 -1.02382 -1.05624
lowerneck -18.7626 2.88535 2.06839
upperneck 3.85139 3.78786 -4.86093
head 4.27542 1.58467 -1.51166
rclavicle -3.06128e-014 -3.02153e-014
rhumerus -45.0318 -18.324 9.18861
rradius 65.7249
rwrist -1.50692
rhand -7.50615 -34.4957
rfingers 7.12502
rthumb 18.384 -63.647
lclavicle -3.06128e-014 -3.02153e-014
lhumerus -40.5565 26.4685 -2.90157
lradius 69.4539
lwrist 16.2221
lhand 24.2424 -0.231472
lfingers 7.12502
lthumb 48.4647 21.7616
rfemur -1.76566 6.8835 11.4704
rtibia 2.22639e-014
rfoot -17.5211 -12.2039
rtoes -2.88635
lfemur -11.501 3.93061 -15.3457
ltibia 20.3729
lfoot -17.3397 8.24816
ltoes -55.9827
431
root -0.780007 18.8864 6.26482 10.1528 -7.57144 1.07278
lowerback 25.0334 -2.44708 6.01877
upperback -2.3983 -1.13048 1.57808
thorax -16.3677 -0.945896 -1.16862
lowerneck -17.8765 2.4707 1.55107
upperneck 3.05741 3.26413 -4.08876
head 3.85035 1.38805 -1.24607
rclavicle 2.52457e-014 7.95139e-015
rhumerus -49.5512 -19.5149 7.42804
rradius 68.9736
rwrist 1.42246
rhand -14.3553 -38.0728
rfingers 7.12502
rthumb 11.7865 -67.7211
lclavicle 2.52457e-014 7.95139e-015
lhumerus -44.1696 26.0998 -1.44973
lradius 73.3804
lwrist 18.1061
lhand 19.1283 -0.765778
lfingers 7.12502
lthumb 43.7222 23.2199
rfemur -2.05478 6.56203 11.582
rtibia 6.36111e-015
rfoot -17.5155 -12.0554
rtoes -2.38291
lfemur -11.9869 3.67926 -15.2221
ltibia 20.492
lfoot -17.3079 8.36376
ltoes -56.1671
432
root -0.793563 18.8865 6.24521 10.5216 -7.2259 0.978188
lowerback 24.993 -2.2747 5.82818
upperback -2.44474 -0.990573 1.40277
thorax -16.3941 -0.878647 -1.31055
lowerneck -16.9005 2.09512 1.12666
upperneck 2.04956 2.77819 -3.29724
head 3.77769 1.2139 -1.07989
rclavicle -1.05356e-014 1.03368e-014
rhumerus -53.2594 -20.4487 4.43264
rradius 70.4011
rwrist 2.11032
rhand -26.125 -42.5507
rfingers 7.12502
rthumb 0.425002 -72.53
lclavicle -1.05356e-014 1.03368e-014
lhumerus -47.6244 26.3704 1.08
lradius 77.2549
lwrist 18.4808
lhand 11.8435 -1.82291
lfingers 7.12502
lthumb 36.8727 24.2744
rfemur -2.43287 6.19397 11.7357
rtibia 0
rfoot -17.4884 -11.9474
rtoes -2.27686
lfemur -12.5835 3.38227 -15.0674
ltibia 20.6362
lfoot -17.3785 8.52514
ltoes -56.2205
433
root -0.803908 18.8847 6.22636 10.9146 -6.92903 0.75206
lowerback 24.9484 -2.11402 5.75346
upperback -2.13481 -0.830334 1.28466
thorax -16.7281 -0.807368 -1.47254
lowerneck -16.3736 1.83496 0.754498
upperneck 1.71186 2.46225 -2.75343
head 3.52812 1.08849 -0.857274
rclavicle -2.20651e-014 -3.97569e-015
rhumerus -56.7588 -22.0426 1.25465
rradius 72.085
rwrist 2.70897
rhand -34.7772 -49.0828
rfingers 7.12502
rthumb -7.92974 -78.9141
lclavicle -2.20651e-014 -3.97569e-015
lhumerus -50.7281 26.7402 4.8226
lradius 80.4979
lwrist 17.5795
lhand 1.1457 -4.66245
lfingers 7.12502
lthumb 26.6873 23.476
rfemur -2.83764 5.89938 12.019
rtibia 6.36111e-015
rfoot -17.4431 -11.8745
rtoes -2.45419
lfemur -13.1667 3.14259 -14.7872
ltibia 20.7886
lfoot -17.5244 8.64112
ltoes -56.2139
434
root -0.811846 18.8827 6.20615 11.3184 -6.70139 0.528664
lowerback 24.8215 -1.91588 5.57584
upperback -2.09272 -0.644778 1.21643
thorax -16.5837 -0.711639 -1.52689
lowerneck -16.3236 1.68057 0.49201
upperneck 1.56834 2.28361 -2.42111
head 3.45325 1.01527 -0.71326
rclavicle -1.39149e-015 1.03368e-014
rhumerus -59.7432 -24.549 -2.03522
rradius 73.3516
rwrist 3.59963
rhand -37.0307 -56.1123
rfingers 7.12502
rthumb -10.1043 -85.8497
lclavicle -1.39149e-015 1.03368e-014
lhumerus -53.2373 27.5451 9.3632
lradius 82.8536
lwrist 17.416
lhand -10.2101 -8.84001
lfingers 7.12502
lthumb 15.7813 20.5367
rfemur -3.29312 5.67236 12.2734
rtibia 6.36111e-015
rfoot -17.3453 -11.8565
rtoes -2.77247
lfemur -13.7452 2.86505 -14.5286
ltibia 20.9506
lfoot -17.7394 8.82902
ltoes -56.2084
435
root -0.81947 18.8821 6.18017 11.7238 -6.45513 0.398024
lowerback 24.7131 -1.71546 5.28899
upperback -2.03736 -0.487173 1.15155
thorax -16.4348 -0.617477 -1.50278
lowerneck -16.7342 1.529 0.292314
upperneck 1.60062 2.10281 -2.11499
head 3.53301 0.935742 -0.587608
rclavicle 2.94201e-014 -3.33958e-014
rhumerus -62.1633 -27.9212 -5.37045
rradius 73.7889
rwrist 4.89272
rhand -38.8439 -59.1714
rfingers 7.12502
rthumb -11.8532 -88.816
lclavicle 2.94201e-014 -3.33958e-014
lhumerus -54.7753 28.9682 14.5116
lradius 83.9855
lwrist 17.0509
lhand -20.509 -14.8421
lfingers 7.12502
lthumb 5.84837 15.0572
rfemur -3.78373 5.40881 12.4265
rtibia -6.36111e-015
rfoot -17.2217 -11.8428
rtoes -3.08295
lfemur -14.3717 2.49008 -14.3478
ltibia 21.1044
lfoot -17.93 9.10096
ltoes -56.1411
